<?xml version="1.0" encoding="utf-8"?>
<!-- Generator: Adobe Illustrator 17.0.0, SVG Export Plug-In . SVG Version: 6.00 Build 0)  -->
<!DOCTYPE svg PUBLIC "-//W3C//DTD SVG 1.1//EN" "http://www.w3.org/Graphics/SVG/1.1/DTD/svg11.dtd">
<svg version="1.1" id="Слой_1" xmlns="http://www.w3.org/2000/svg" xmlns:xlink="http://www.w3.org/1999/xlink" x="0px" y="0px"
	 width="1230.963px" height="864.129px" viewBox="0 0 1230.963 864.129" enable-background="new 0 0 1230.963 864.129"
	 xml:space="preserve">
<g>
	<path fill="#009A9C" d="M859.891,524.055c-11.185,4.363-21.518,10.462-32.163,15.907c-62.7,32.069-126.004,62.814-191.619,88.581
		c-68.52,26.908-138.747,47.759-211.533,59.374c-49.489,7.897-99.276,11.583-149.389,8.195
		c-46.493-3.143-91.657-12.053-134.475-31.285c-60.188-27.034-100.184-72.46-122.635-133.908C5.891,497.566,0.111,463.025,1,427.521
		c0.856-34.165,10.598-66.243,24.313-97.241c17.192-38.857,41.427-72.944,71.311-102.947
		c73.581-73.877,160.227-126.267,260.097-156.42c32.008-9.664,64.812-15.087,98.352-15.639c28.804-0.473,49.359,12.1,62.038,37.996
		c10.734,21.922,16.246,45.358,20.785,69.103c1.279,6.694,2.809,13.364,3.156,20.208c0.114,2.243-0.05,3.565-3.231,2.863
		c-16.395-3.619-32.852-1.588-49.207,0.356c-72.307,8.595-136.667,38.481-198.382,75.019
		c-46.003,27.237-89.242,58.324-127.562,95.823c-25.17,24.631-47.195,51.65-61.242,84.386
		c-6.219,14.493-10.314,29.579-11.071,45.375c-1.172,24.456,9.083,43.52,28.397,57.982c19.125,14.319,41.28,21.377,64.338,25.758
		c40.044,7.608,80.46,7.847,120.994,5.339c56.078-3.47,110.946-13.937,165.053-28.604c73.589-19.948,144.448-47.347,213.645-79.191
		c41.752-19.214,82.748-39.919,122.941-62.21c1.582-0.877,3.399-1.433,4.528-3.005c1.363-0.588,2.791-1.058,4.078-1.78
		c28.844-16.17,57.697-32.326,86.496-48.576c15.763-8.895,31.431-17.959,47.142-26.946c17.217-8.353,33.763-17.965,50.571-27.079
		c75.341-40.849,150.614-81.824,225.917-122.744c1.861-1.011,3.787-1.903,5.732-2.875c1.162,1.807,0.674,3.492,0.664,5.065
		c-0.272,44.645-0.618,89.29-0.816,133.936c-0.014,3.051-0.943,4.76-3.566,6.287c-71.775,41.788-143.51,83.644-215.225,125.534
		c-2.976,1.738-6.388,2.898-8.595,5.803c-2.283,0.028-4.109,1.294-6.008,2.293c-39.068,20.561-78.156,41.085-117.154,61.779
		C872.896,516.669,865.879,519.45,859.891,524.055z"/>
	<path fill="#006E4E" d="M572.396,864.084c-187.481,0-374.962,0-562.444,0c-1.833,0-3.675-0.118-5.498,0.017
		c-3.17,0.234-4.46-1.004-4.452-4.296c0.077-30.497,0.08-60.994-0.002-91.49c-0.009-3.349,1.38-4.48,4.491-4.247
		c1.491,0.112,2.998,0.01,4.498,0.01c375.629,0,751.258-0.003,1126.887,0.014c10.328,0,9.123-1.064,9.142,9.012
		c0.052,27.997,0.021,55.994,0.016,83.992c-0.002,6.974-0.015,6.988-7.195,6.988C949.358,864.086,760.877,864.084,572.396,864.084z"
		/>
	<path fill="#006E4E" d="M947.968,325.168c-15.711,8.988-31.378,18.052-47.142,26.947c-28.799,16.251-57.651,32.406-86.496,48.576
		c-1.287,0.722-2.716,1.192-4.078,1.78c-8.168-20.762-16.395-41.501-24.492-62.292c-16.681-42.837-33.287-85.703-49.956-128.544
		c-0.583-1.498-0.763-3.283-2.376-4.305c-1.649,1.36-2.093,3.387-2.911,5.168c-30.653,66.756-61.668,133.351-91.729,200.373
		c-12.224,27.255-31.575,46.967-56.986,61.513c-30.575,17.503-63.938,27.181-98.041,34.716c-21.634,4.78-43.468,8.466-65.415,11.486
		c-1.111,0.153-2.256,0.738-3.386-0.195c-0.195-2.121,1.155-3.745,2.009-5.489c31.877-65.087,66.424-128.797,99.774-193.124
		c43.472-83.853,87.302-167.52,130.872-251.323c1.851-3.56,3.907-5.045,8.031-5.035c54.154,0.134,108.309,0.132,162.464,0.005
		c4.128-0.01,6.196,1.446,7.947,5.102c40.068,83.683,80.253,167.311,120.406,250.955
		C947.036,322.676,947.47,323.938,947.968,325.168z"/>
	<path fill="#006E4E" d="M859.891,524.055c5.988-4.604,13.005-7.385,19.599-10.884c38.997-20.694,78.085-41.219,117.154-61.779
		c1.899-0.999,3.725-2.265,6.008-2.293c0.891,1.582,1.905,3.11,2.656,4.757c35.365,77.554,70.709,155.117,106.048,232.682
		c3.07,6.739,3.047,6.771-4.362,6.756c-45.63-0.093-91.261-0.185-136.891-0.307c-6.5-0.017-12.959-0.574-19.384-1.645
		c-16.806-2.802-28.488-11.736-34.887-27.799c-13.183-33.094-26.702-66.055-40.01-99.099
		C870.415,551.018,865.196,537.518,859.891,524.055z"/>
	<path fill="#EB1C24" d="M1229.592,55.071c0,16.998-0.069,33.996,0.064,50.993c0.024,3.044-0.908,4.722-3.652,6.217
		c-71.33,38.854-142.608,77.803-213.888,116.748c-21.61,11.807-49.314,4.012-58.324-21.078
		c-6.736-18.756-15.545-36.769-23.506-55.08c-0.996-2.292-1.499-3.714,1.742-4.513c25.053-6.178,48.511-16.618,71.157-28.579
		c73.882-39.022,147.468-78.604,221.167-117.973c5.232-2.795,5.238-2.803,5.24,3.271
		C1229.596,21.742,1229.593,38.407,1229.592,55.071z"/>
</g>
</svg>
